<?xml version="1.0" encoding="utf-8"?>
<svg version="1.1" id="Capa_1" xmlns="http://www.w3.org/2000/svg" xmlns:xlink="http://www.w3.org/1999/xlink" x="0px" y="0px"
	 viewBox="0 0 1086 445" style="enable-background:new 0 0 1086 445;" xml:space="preserve">
<style type="text/css">
	.st0{fill:#333333;}
</style>
<g>
	<g>
		<polygon class="st0" points="1018.5,193.4 1018.5,20.5 739.8,20.5 739.8,248 940.9,333.3 940.9,419.3 1018.5,419.3 1018.5,279.8 
			817.4,194.6 817.4,98.9 940.9,98.9 940.9,160.5 		"/>
		<polygon class="st0" points="739.8,419.3 939.2,419.3 739.8,334.3 		"/>
		<polygon class="st0" points="660.4,193.4 660.4,20.5 381.7,20.5 381.7,248 582.8,333.3 582.8,419.3 660.4,419.3 660.4,279.8 
			459.3,194.6 459.3,98.9 582.8,98.9 582.8,160.5 		"/>
		<polygon class="st0" points="381.7,419.3 581.2,419.3 381.7,334.3 		"/>
		<polygon class="st0" points="225.7,54.5 225.7,341.5 102,341.5 102,54.5 24.5,21.5 24.5,419.3 303.2,419.3 303.2,21.5 		"/>
	</g>
</g>
</svg>
